<svg version="1.1" id="Layer_1" xmlns="http://www.w3.org/2000/svg" xmlns:xlink="http://www.w3.org/1999/xlink" x="0px" y="0px"
	 width="100%" viewBox="0 0 500 500" enable-background="new 0 0 500 500" xml:space="preserve">
<path fill="#FFFFFF" opacity="1.000000" stroke="none" 
	d="
M273.000000,501.000000 
	C182.000015,501.000000 91.500046,501.000000 1.000049,501.000000 
	C1.000032,334.333405 1.000032,167.666794 1.000016,1.000138 
	C167.666565,1.000092 334.333130,1.000092 500.999756,1.000046 
	C500.999847,167.666519 500.999847,334.333038 500.999939,500.999786 
	C425.166656,501.000000 349.333344,501.000000 273.000000,501.000000 
M293.904846,230.912659 
	C294.566223,230.972488 295.226654,231.069260 295.889130,231.086426 
	C302.318451,231.252823 302.070648,231.251190 302.128021,237.755005 
	C302.230560,249.386642 302.576599,261.018982 303.053131,272.641510 
	C303.126282,274.426300 304.314392,277.603271 305.199524,277.679932 
	C310.345490,278.125519 315.764984,278.641754 320.632416,277.372192 
	C322.403992,276.910065 323.765228,271.620148 323.836212,268.499237 
	C324.055237,258.871216 323.188324,249.216614 323.455353,239.592102 
	C323.696716,230.893051 324.110260,230.910477 332.518311,230.144379 
	C333.672058,230.039261 334.853424,229.970169 335.960144,229.662140 
	C340.846527,228.302032 342.139801,224.638916 341.972534,220.070587 
	C341.816315,215.804153 339.861542,212.923782 335.406464,212.904892 
	C319.825806,212.838837 304.243195,212.916718 288.665100,213.169601 
	C287.488617,213.188705 286.341522,215.013870 284.469635,215.931503 
	C281.635620,213.702362 278.789673,211.488159 275.969513,209.241623 
	C260.608948,197.005447 235.858963,198.339172 221.991425,212.364166 
	C217.782974,216.620407 214.082535,221.378967 209.961212,225.228912 
	C204.641846,211.754562 180.504501,208.152634 168.372940,216.016068 
	C159.204803,221.958664 154.827103,239.208511 169.419968,246.750778 
	C174.260010,249.252335 179.232422,251.501068 184.038208,254.064346 
	C186.760895,255.516571 189.479370,257.546234 187.471588,261.117371 
	C185.598999,264.448059 182.405869,264.730835 179.246277,262.905121 
	C176.379211,261.248444 173.915146,258.579437 170.875504,257.628052 
	C168.039734,256.740448 164.088409,256.506897 161.727585,257.878235 
	C159.613846,259.106079 157.541397,263.241119 158.051437,265.508392 
	C158.890244,269.237061 161.135269,273.298523 164.021683,275.789490 
	C171.224823,282.005798 180.212830,282.829193 189.400787,282.080261 
	C199.940872,281.221130 207.084717,275.370148 210.794266,264.939026 
	C211.873474,265.804077 213.089966,266.545105 214.005325,267.558197 
	C216.434967,270.247253 218.504166,273.298065 221.125793,275.771393 
	C232.646622,286.640594 246.297791,291.017090 261.654327,286.653900 
	C277.624664,282.116272 288.999023,271.657379 292.787354,255.300354 
	C294.589935,247.517349 293.050446,238.960312 293.904846,230.912659 
M142.256927,279.722351 
	C149.868454,277.491852 152.128632,274.800598 151.990479,266.940613 
	C151.876831,260.473694 151.661530,253.947006 150.674454,247.573303 
	C149.568085,240.429459 148.213165,233.183319 145.747177,226.426651 
	C142.694244,218.061768 136.528503,212.853882 126.930336,212.867294 
	C116.062866,212.882477 109.384956,219.159637 104.835838,228.020828 
	C97.697426,241.925720 96.092285,257.116516 96.213150,272.433411 
	C96.233109,274.962250 99.080757,278.569458 101.551254,279.778107 
	C109.977585,283.900513 115.829002,280.230988 117.129791,270.766296 
	C117.845215,265.560822 120.719727,263.710876 127.365974,264.126312 
	C131.898834,264.409698 134.543228,266.417084 134.132462,271.330994 
	C133.687164,276.658081 136.148941,279.475128 142.256927,279.722351 
M379.174988,227.094498 
	C381.001648,227.234375 382.826141,227.423859 384.655396,227.504074 
	C388.846710,227.687851 392.268951,226.803314 392.956787,221.775909 
	C393.821198,215.458252 392.546783,212.492966 386.841736,212.134064 
	C376.768646,211.500351 366.630707,211.772598 356.522156,211.878281 
	C351.329712,211.932556 348.413513,215.301468 348.144287,220.066055 
	C347.318878,234.674316 346.201172,249.327942 346.603333,263.925171 
	C346.959473,276.851288 350.287140,279.726746 363.352020,280.573029 
	C371.766998,281.118103 380.307068,280.660461 388.723877,279.904419 
	C393.844086,279.444519 396.046021,274.388855 394.840363,268.285767 
	C393.858673,263.316528 390.467041,263.165466 386.475006,263.862061 
	C382.227692,264.603210 377.951874,265.648956 373.690063,265.641571 
	C371.554688,265.637878 368.220764,264.089447 367.505524,262.373901 
	C364.941376,256.223450 367.378906,253.170319 373.937256,252.810120 
	C376.785004,252.653702 380.201508,253.006668 380.984253,248.888779 
	C382.317566,241.874268 380.069916,239.233444 372.994263,238.764130 
	C371.262207,238.649246 368.502106,237.386307 368.138336,236.105042 
	C366.339020,229.767410 368.868164,226.802429 375.269348,226.942703 
	C376.268494,226.964584 377.266907,227.018768 379.174988,227.094498 
M75.936424,242.942337 
	C75.164642,237.664856 71.038101,238.977982 67.771812,238.936081 
	C64.470497,238.893723 62.500507,237.686356 63.107536,234.200516 
	C63.639423,231.146164 62.238724,226.571045 68.000847,226.915619 
	C71.987785,227.154022 75.978661,227.328979 79.968674,227.513107 
	C85.293800,227.758850 87.499855,226.160400 88.058235,221.682480 
	C88.886765,215.038162 87.804489,212.510422 81.960854,212.127945 
	C72.059242,211.479904 62.078484,211.526489 52.155697,211.913849 
	C46.402912,212.138428 43.452827,214.983551 43.207653,220.680237 
	C42.528793,236.453690 42.167095,252.251556 42.194138,268.038910 
	C42.203922,273.749847 45.429451,279.063904 51.328514,279.566895 
	C62.032475,280.479614 72.877411,280.443451 83.619759,279.914612 
	C89.291595,279.635437 91.069046,275.369690 89.949226,268.205872 
	C89.063271,262.538147 84.998535,263.432587 81.137802,263.966919 
	C79.995239,264.125061 78.880287,264.496826 77.736320,264.628021 
	C74.113640,265.043457 70.449814,265.890625 66.863480,265.650665 
	C61.215843,265.272766 62.330120,260.552979 62.145401,256.882874 
	C61.961472,253.228333 64.030701,252.628281 67.255020,252.746338 
	C75.730949,253.056702 76.481926,252.155075 75.936424,242.942337 
M401.044922,241.688934 
	C399.195465,254.943970 402.658386,266.496429 414.014709,274.001465 
	C426.174500,282.037506 439.723328,283.274994 453.451691,277.919373 
	C459.421112,275.590607 461.597900,271.304871 459.997681,266.791138 
	C458.279510,261.944733 454.763458,260.822235 447.967133,262.819305 
	C445.909790,263.423889 443.784912,263.813812 441.675903,264.224762 
	C431.941071,266.121460 424.300262,262.207855 422.185028,254.270935 
	C419.752838,245.144791 424.602325,235.375504 433.824066,233.094437 
	C438.717407,231.884018 444.222076,232.624146 449.381897,233.154312 
	C454.845398,233.715683 457.644257,232.504196 459.459076,227.516800 
	C461.064880,223.103653 459.490326,219.767746 454.370819,217.148453 
	C434.283417,206.871048 406.901367,216.261993 401.044922,241.688934 
z"/>
<path fill="#030303" opacity="1.000000" stroke="none" 
	d="
M141.868439,279.758362 
	C136.148941,279.475128 133.687164,276.658081 134.132462,271.330994 
	C134.543228,266.417084 131.898834,264.409698 127.365974,264.126312 
	C120.719727,263.710876 117.845215,265.560822 117.129791,270.766296 
	C115.829002,280.230988 109.977585,283.900513 101.551254,279.778107 
	C99.080757,278.569458 96.233109,274.962250 96.213150,272.433411 
	C96.092285,257.116516 97.697426,241.925720 104.835838,228.020828 
	C109.384956,219.159637 116.062866,212.882477 126.930336,212.867294 
	C136.528503,212.853882 142.694244,218.061768 145.747177,226.426651 
	C148.213165,233.183319 149.568085,240.429459 150.674454,247.573303 
	C151.661530,253.947006 151.876831,260.473694 151.990479,266.940613 
	C152.128632,274.800598 149.868454,277.491852 141.868439,279.758362 
M132.940155,237.973740 
	C130.997849,236.020111 128.860794,232.347412 127.161591,232.539902 
	C124.944595,232.791031 122.339226,235.766815 121.231003,238.180847 
	C119.650635,241.623337 119.277344,245.619980 118.345322,249.562393 
	C124.111282,249.562393 128.973022,249.562393 134.365265,249.562393 
	C133.889511,245.642715 133.473770,242.217484 132.940155,237.973740 
z"/>
<path fill="#040404" opacity="1.000000" stroke="none" 
	d="
M210.072998,265.052216 
	C207.084717,275.370148 199.940872,281.221130 189.400787,282.080261 
	C180.212830,282.829193 171.224823,282.005798 164.021683,275.789490 
	C161.135269,273.298523 158.890244,269.237061 158.051437,265.508392 
	C157.541397,263.241119 159.613846,259.106079 161.727585,257.878235 
	C164.088409,256.506897 168.039734,256.740448 170.875504,257.628052 
	C173.915146,258.579437 176.379211,261.248444 179.246277,262.905121 
	C182.405869,264.730835 185.598999,264.448059 187.471588,261.117371 
	C189.479370,257.546234 186.760895,255.516571 184.038208,254.064346 
	C179.232422,251.501068 174.260010,249.252335 169.419968,246.750778 
	C154.827103,239.208511 159.204803,221.958664 168.372940,216.016068 
	C180.504501,208.152634 204.641846,211.754562 209.932358,225.922287 
	C209.266663,229.215042 208.629822,231.814407 207.623688,234.633301 
	C204.743713,235.209473 201.982162,236.397919 199.779495,235.733536 
	C196.218628,234.659454 193.002121,232.409012 189.682266,230.579041 
	C184.963974,227.978226 181.319214,228.114334 180.219406,231.318863 
	C178.670380,235.832169 182.450104,236.853210 185.370819,238.285736 
	C186.699051,238.937195 188.163025,239.349136 189.411865,240.118851 
	C195.274185,243.731979 201.083160,247.431671 206.938400,251.508972 
	C208.001419,256.295715 209.037201,260.673981 210.072998,265.052216 
z"/>
<path fill="#040404" opacity="1.000000" stroke="none" 
	d="
M378.720337,227.076263 
	C377.266907,227.018768 376.268494,226.964584 375.269348,226.942703 
	C368.868164,226.802429 366.339020,229.767410 368.138336,236.105042 
	C368.502106,237.386307 371.262207,238.649246 372.994263,238.764130 
	C380.069916,239.233444 382.317566,241.874268 380.984253,248.888779 
	C380.201508,253.006668 376.785004,252.653702 373.937256,252.810120 
	C367.378906,253.170319 364.941376,256.223450 367.505524,262.373901 
	C368.220764,264.089447 371.554688,265.637878 373.690063,265.641571 
	C377.951874,265.648956 382.227692,264.603210 386.475006,263.862061 
	C390.467041,263.165466 393.858673,263.316528 394.840363,268.285767 
	C396.046021,274.388855 393.844086,279.444519 388.723877,279.904419 
	C380.307068,280.660461 371.766998,281.118103 363.352020,280.573029 
	C350.287140,279.726746 346.959473,276.851288 346.603333,263.925171 
	C346.201172,249.327942 347.318878,234.674316 348.144287,220.066055 
	C348.413513,215.301468 351.329712,211.932556 356.522156,211.878281 
	C366.630707,211.772598 376.768646,211.500351 386.841736,212.134064 
	C392.546783,212.492966 393.821198,215.458252 392.956787,221.775909 
	C392.268951,226.803314 388.846710,227.687851 384.655396,227.504074 
	C382.826141,227.423859 381.001648,227.234375 378.720337,227.076263 
z"/>
<path fill="#030303" opacity="1.000000" stroke="none" 
	d="
M75.957481,243.379990 
	C76.481926,252.155075 75.730949,253.056702 67.255020,252.746338 
	C64.030701,252.628281 61.961472,253.228333 62.145401,256.882874 
	C62.330120,260.552979 61.215843,265.272766 66.863480,265.650665 
	C70.449814,265.890625 74.113640,265.043457 77.736320,264.628021 
	C78.880287,264.496826 79.995239,264.125061 81.137802,263.966919 
	C84.998535,263.432587 89.063271,262.538147 89.949226,268.205872 
	C91.069046,275.369690 89.291595,279.635437 83.619759,279.914612 
	C72.877411,280.443451 62.032475,280.479614 51.328514,279.566895 
	C45.429451,279.063904 42.203922,273.749847 42.194138,268.038910 
	C42.167095,252.251556 42.528793,236.453690 43.207653,220.680237 
	C43.452827,214.983551 46.402912,212.138428 52.155697,211.913849 
	C62.078484,211.526489 72.059242,211.479904 81.960854,212.127945 
	C87.804489,212.510422 88.886765,215.038162 88.058235,221.682480 
	C87.499855,226.160400 85.293800,227.758850 79.968674,227.513107 
	C75.978661,227.328979 71.987785,227.154022 68.000847,226.915619 
	C62.238724,226.571045 63.639423,231.146164 63.107536,234.200516 
	C62.500507,237.686356 64.470497,238.893723 67.771812,238.936081 
	C71.038101,238.977982 75.164642,237.664856 75.957481,243.379990 
z"/>
<path fill="#040404" opacity="1.000000" stroke="none" 
	d="
M401.096466,241.275757 
	C406.901367,216.261993 434.283417,206.871048 454.370819,217.148453 
	C459.490326,219.767746 461.064880,223.103653 459.459076,227.516800 
	C457.644257,232.504196 454.845398,233.715683 449.381897,233.154312 
	C444.222076,232.624146 438.717407,231.884018 433.824066,233.094437 
	C424.602325,235.375504 419.752838,245.144791 422.185028,254.270935 
	C424.300262,262.207855 431.941071,266.121460 441.675903,264.224762 
	C443.784912,263.813812 445.909790,263.423889 447.967133,262.819305 
	C454.763458,260.822235 458.279510,261.944733 459.997681,266.791138 
	C461.597900,271.304871 459.421112,275.590607 453.451691,277.919373 
	C439.723328,283.274994 426.174500,282.037506 414.014709,274.001465 
	C402.658386,266.496429 399.195465,254.943970 401.096466,241.275757 
z"/>
<path fill="#929292" opacity="1.000000" stroke="none" 
	d="
M207.992981,234.413788 
	C208.629822,231.814407 209.266663,229.215042 210.026459,226.261566 
	C214.082535,221.378967 217.782974,216.620407 221.991425,212.364166 
	C235.858963,198.339172 260.608948,197.005447 275.969513,209.241623 
	C278.789673,211.488159 281.635620,213.702362 285.142151,216.074844 
	C288.218109,221.063431 290.621490,225.908661 293.024902,230.753906 
	C293.050446,238.960312 294.589935,247.517349 292.787354,255.300354 
	C288.999023,271.657379 277.624664,282.116272 261.654327,286.653900 
	C246.297791,291.017090 232.646622,286.640594 221.125793,275.771393 
	C218.504166,273.298065 216.434967,270.247253 214.005325,267.558197 
	C213.089966,266.545105 211.873474,265.804077 210.433624,264.995605 
	C209.037201,260.673981 208.001419,256.295715 207.238525,251.262268 
	C207.671936,245.209305 207.832458,239.811539 207.992981,234.413788 
M275.831268,268.319641 
	C287.313324,256.209320 287.563843,238.233505 280.142365,226.271988 
	C272.605988,214.125290 258.508148,208.088928 243.436203,210.956543 
	C228.202560,213.854889 216.626495,227.750488 216.174576,243.680710 
	C215.734695,259.186829 227.000320,274.405731 241.736481,277.925751 
	C254.531067,280.981903 265.785400,277.926056 275.831268,268.319641 
z"/>
<path fill="#030303" opacity="1.000000" stroke="none" 
	d="
M293.464874,230.833282 
	C290.621490,225.908661 288.218109,221.063431 285.497742,216.108841 
	C286.341522,215.013870 287.488617,213.188705 288.665100,213.169601 
	C304.243195,212.916718 319.825806,212.838837 335.406464,212.904892 
	C339.861542,212.923782 341.816315,215.804153 341.972534,220.070587 
	C342.139801,224.638916 340.846527,228.302032 335.960144,229.662140 
	C334.853424,229.970169 333.672058,230.039261 332.518311,230.144379 
	C324.110260,230.910477 323.696716,230.893051 323.455353,239.592102 
	C323.188324,249.216614 324.055237,258.871216 323.836212,268.499237 
	C323.765228,271.620148 322.403992,276.910065 320.632416,277.372192 
	C315.764984,278.641754 310.345490,278.125519 305.199524,277.679932 
	C304.314392,277.603271 303.126282,274.426300 303.053131,272.641510 
	C302.576599,261.018982 302.230560,249.386642 302.128021,237.755005 
	C302.070648,231.251190 302.318451,231.252823 295.889130,231.086426 
	C295.226654,231.069260 294.566223,230.972488 293.464874,230.833282 
z"/>
<path fill="#F9F9F9" opacity="1.000000" stroke="none" 
	d="
M132.999100,238.382996 
	C133.473770,242.217484 133.889511,245.642715 134.365265,249.562393 
	C128.973022,249.562393 124.111282,249.562393 118.345322,249.562393 
	C119.277344,245.619980 119.650635,241.623337 121.231003,238.180847 
	C122.339226,235.766815 124.944595,232.791031 127.161591,232.539902 
	C128.860794,232.347412 130.997849,236.020111 132.999100,238.382996 
z"/>
<path fill="#F8F8F8" opacity="1.000000" stroke="none" 
	d="
M207.623688,234.633301 
	C207.832458,239.811539 207.671936,245.209305 207.211304,250.853760 
	C201.083160,247.431671 195.274185,243.731979 189.411865,240.118851 
	C188.163025,239.349136 186.699051,238.937195 185.370819,238.285736 
	C182.450104,236.853210 178.670380,235.832169 180.219406,231.318863 
	C181.319214,228.114334 184.963974,227.978226 189.682266,230.579041 
	C193.002121,232.409012 196.218628,234.659454 199.779495,235.733536 
	C201.982162,236.397919 204.743713,235.209473 207.623688,234.633301 
z"/>
<path fill="#FDFDFE" opacity="1.000000" stroke="none" 
	d="
M275.597992,268.588806 
	C265.785400,277.926056 254.531067,280.981903 241.736481,277.925751 
	C227.000320,274.405731 215.734695,259.186829 216.174576,243.680710 
	C216.626495,227.750488 228.202560,213.854889 243.436203,210.956543 
	C258.508148,208.088928 272.605988,214.125290 280.142365,226.271988 
	C287.563843,238.233505 287.313324,256.209320 275.597992,268.588806 
M252.167648,237.678452 
	C249.206085,234.304474 246.234482,230.939255 243.286728,227.553268 
	C241.525589,225.530319 239.715546,223.858566 236.985657,226.107727 
	C234.059570,228.518539 235.379623,230.720718 237.308884,232.899979 
	C237.639679,233.273651 237.906967,233.712616 238.273315,234.044449 
	C246.330368,241.342087 250.897568,249.938324 248.887070,261.228851 
	C248.405518,263.933167 249.343857,266.252228 252.855042,266.167297 
	C256.321625,266.083374 256.809052,263.723145 256.847290,261.026306 
	C256.922882,255.696503 256.969269,250.366302 257.622314,244.706924 
	C260.415955,240.012909 263.479736,235.449158 265.843079,230.547653 
	C266.578552,229.022369 266.137299,225.815033 264.972961,224.722977 
	C262.626984,222.522568 260.393250,224.229950 259.001038,226.673599 
	C256.871887,230.410690 254.829391,234.197144 252.167648,237.678452 
z"/>
<path fill="#0850AF" opacity="1.000000" stroke="none" 
	d="
M257.027710,245.036270 
	C256.969269,250.366302 256.922882,255.696503 256.847290,261.026306 
	C256.809052,263.723145 256.321625,266.083374 252.855042,266.167297 
	C249.343857,266.252228 248.405518,263.933167 248.887070,261.228851 
	C250.897568,249.938324 246.330368,241.342087 238.273315,234.044449 
	C237.906967,233.712616 237.639679,233.273651 237.308884,232.899979 
	C235.379623,230.720718 234.059570,228.518539 236.985657,226.107727 
	C239.715546,223.858566 241.525589,225.530319 243.286728,227.553268 
	C246.234482,230.939255 249.206085,234.304474 252.560486,238.154022 
	C254.311447,240.765167 255.669586,242.900711 257.027710,245.036270 
z"/>
<path fill="#09AF8D" opacity="1.000000" stroke="none" 
	d="
M257.325012,244.871597 
	C255.669586,242.900711 254.311447,240.765167 252.851715,238.296112 
	C254.829391,234.197144 256.871887,230.410690 259.001038,226.673599 
	C260.393250,224.229950 262.626984,222.522568 264.972961,224.722977 
	C266.137299,225.815033 266.578552,229.022369 265.843079,230.547653 
	C263.479736,235.449158 260.415955,240.012909 257.325012,244.871597 
z"/>
</svg>